<svg version="1.2" xmlns="http://www.w3.org/2000/svg" viewBox="0 0 583 151" width="583" height="151">
	<title>aijim</title>
	<style>
		.s0 { opacity: .11;fill: #fe959f } 
		.s1 { opacity: .16;fill: #9b0000 } 
		.s2 { opacity: .24;fill: #ffffff } 
		.s3 { opacity: .43;fill: #d4030e } 
		.s4 { opacity: .49;fill: #ffffff } 
		.s5 { opacity: .54;fill: #9d0000 } 
		.s6 { opacity: .66;fill: #ffffff } 
		.s7 { opacity: .7;fill: #ff1b2e } 
		.s8 { opacity: .78;fill: #ffffff } 
		.s9 { opacity: .85;fill: #fe010d } 
		.s10 { opacity: .91;fill: #ffffff } 
		.s11 { opacity: 1;fill: #ff0000 } 
		.s12 { opacity: 1;fill: #ffffff } 
	</style>
	<g id="Background">
		<path id="Path 0" class="s0" d="m262.4 33c0 8.53 0.16 11.9 0.34 7.5 0.19-4.4 0.19-11.38 0-15.5-0.18-4.13-0.34-0.53-0.34 8z"/>
		<path id="Path 1" class="s1" d="m289.5 16.75c11.55 0.16 30 0.16 41 0 11-0.16 1.55-0.29-21-0.29-22.55 0-31.55 0.13-20 0.29z"/>
		<path id="Path 2" class="s2" d="m234.72 28.67c0.94 0.63 1.29 14.29 1.52 57.83l0.29 57c-0.03-107.6-0.22-114.89-1.53-115.24q-1.58-0.45-0.28 0.41z"/>
		<path id="Path 3" class="s3" d="m282.42 89c0 11.83 0.15 16.55 0.33 10.5 0.17-6.05 0.17-15.72 0-21.5-0.18-5.78-0.33-0.83-0.33 11z"/>
		<path id="Path 4" class="s4" d="m210 143.74c3.57 0.19 9.88 0.19 14 0 4.13-0.19 1.2-0.34-6.5-0.35-7.7 0-11.07 0.16-7.5 0.35zm164.5 0c4.4 0.19 11.15 0.19 15 0 3.85-0.19 0.25-0.34-8-0.34-8.25 0-11.4 0.16-7 0.34zm47 0c2.75 0.2 6.8 0.2 9-0.01 2.2-0.21-0.05-0.38-5-0.38-4.95 0.01-6.75 0.18-4 0.39z"/>
		<path id="Path 5" class="s5" d="m267 142c0 0.55 1.91 0.96 4.25 0.9 3.63-0.08 3.91-0.23 1.91-1-1.28-0.49-3.19-0.9-4.25-0.9-1.05 0-1.91 0.45-1.91 1z"/>
		<path id="Path 6" class="s6" d="m209.5 16.75c4.95 0.18 12.6 0.18 17-0.01 4.4-0.18 0.35-0.33-9-0.33-9.35 0-12.95 0.15-8 0.34zm175-0.01c2.75 0.2 7.48 0.2 10.5 0 3.02-0.2 0.77-0.37-5-0.37-5.77 0-8.25 0.17-5.5 0.37zm35 0.01c4.95 0.18 12.6 0.18 17-0.01 4.4-0.18 0.35-0.33-9-0.33-9.35 0-12.95 0.15-8 0.34zm127 0c4.95 0.18 12.6 0.18 17-0.01 4.4-0.18 0.35-0.33-9-0.33-9.35 0-12.95 0.15-8 0.34zm-7.7 44c-0.17 0.41-0.07 19.2 0.22 41.75l0.51 41c0.37-64.71 0.27-83.5 0.02-83.5-0.25 0-0.59 0.34-0.75 0.75z"/>
		<path id="Path 7" class="s7" d="m276 48.75c6.88 0.17 17.68 0.17 24 0 6.32-0.18 0.7-0.32-12.5-0.32-13.2 0-18.38 0.14-11.5 0.32z"/>
		<path id="Path 8" class="s8" d="m364.54 17.29c-0.23 0.71-0.33 8.47-0.22 17.25l0.19 15.96c0.77-26.74 0.87-34.5 0.72-34.5-0.16 0-0.46 0.58-0.69 1.29zm4.96-0.57c1.65 0.22 4.8 0.22 7 0.01 2.2-0.22 0.85-0.4-3-0.4-3.85-0.01-5.65 0.17-4 0.39zm-5.04 82.78c0 24.2 0.13 33.88 0.29 21.5 0.16-12.37 0.16-32.17 0-44-0.16-11.83-0.29-1.7-0.29 22.5z"/>
		<path id="Path 9" class="s9" d="m350.46 61c0 23.38 0.13 32.83 0.29 21 0.16-11.83 0.16-30.95 0-42.5-0.16-11.55-0.29-1.88-0.29 21.5z"/>
		<path id="Path 10" class="s10" d="m488.41 85.5c0 9.9 0.15 13.72 0.34 8.5 0.18-5.22 0.18-13.33-0.01-18-0.18-4.67-0.33-0.4-0.33 9.5z"/>
		<path id="Path 11" fill-rule="evenodd" class="s11" d="m91.75 3.02c0.41 0.01 2.87 1.93 5.46 4.25 2.59 2.33 4.73 4.57 4.75 4.98 0.02 0.41-1.08 0.75-2.46 0.75-1.44 0-3.77-1.27-5.5-3-1.65-1.65-3-3.9-3-5 0-1.1 0.34-1.99 0.75-1.98zm26 3.63c0.69 0.19 1.7 0.35 2.25 0.35 0.55 0 1.9 1.46 3 3.25 1.09 1.79 1.99 3.59 2 4 0 0.41-1.69 0.75-3.75 0.75-2.78-0.01-4.14 0.57-5.25 2.25-0.82 1.24-3.13 5.17-5.12 8.75-1.99 3.58-4.24 6.62-5 6.77-0.76 0.14-2.28-1.07-3.38-2.7-1.1-1.63-3.24-3.67-4.75-4.52-1.51-0.85-3.09-1.35-3.5-1.12-0.41 0.24-1.36 0.13-2.1-0.25-1.12-0.57-1.13-1.04-0.02-2.86 0.73-1.2 2.01-2.46 2.85-2.79 0.83-0.34 3.26-0.26 5.39 0.18 2.14 0.43 4.05 1.13 4.25 1.54 0.21 0.41 1.51 0.75 2.88 0.75 1.38 0 3.17-0.23 4-0.5 0.95-0.32 1.5-1.78 1.5-4 0-2.53-0.62-3.9-2.25-4.95-1.91-1.24-2.05-1.68-0.91-2.94 0.74-0.82 2.54-1.67 4-1.9 1.46-0.22 3.22-0.24 3.91-0.06zm232.25 10.35v92.5l-5.11 4.5c-2.81 2.47-6.29 5.65-7.75 7.06-1.45 1.4-7.7 6.92-25.14 21.94h-17.5c-9.93 0-19.56-0.5-22.25-1.16-3.61-0.89-4.81-0.89-5 0-0.16 0.72-2.5 1.16-6.25 1.16-4.12 0-6.01-0.39-6.02-1.25-0.02-0.69 2.31-3.28 5.18-5.75 2.86-2.47 6.58-5.74 8.27-7.25 1.69-1.52 4.64-4.22 6.57-6.01 1.93-1.79 5.3-4.97 7.5-7.07 3.72-3.55 4.41-3.82 9.75-3.75 3.16 0.05 6.76-0.44 8-1.08 1.24-0.64 5.07-3.68 14.8-12.34l-0.03-24.75c-0.02-21.1-0.24-24.82-1.52-25.25-0.82-0.27-12.52-0.5-50.5-0.5l-0.17-14.83c-0.09-8.16 0.21-15.14 0.67-15.5 0.46-0.37 20.11-0.67 86.5-0.67zm-263.91 18.46c4.07 0.07 7.97 0.45 8.66 0.84 0.69 0.38 2.12 2.16 3.19 3.95 1.81 3.02 1.83 3.46 0.37 6.25-0.86 1.65-1.72 3.22-1.91 3.5-0.19 0.27-2.16-1.19-4.37-3.25-2.43-2.26-5.02-3.75-6.53-3.75-1.57 0-3.26-1.03-4.53-2.75-1.12-1.51-2.1-3.24-2.17-3.84-0.08-0.71 2.45-1.04 7.29-0.95zm-15.46 7.53c5.36 0 8.59 0.47 10.12 1.5 1.24 0.83 2.25 1.96 2.25 2.51 0 0.58-3.07 0.99-7.25 0.99-3.99-0.01-8.34-0.58-9.67-1.25-1.33-0.68-2.62-1.8-2.87-2.49-0.33-0.93 1.56-1.25 7.42-1.26zm-34.63 9.01c0.55 0 2.36 3.04 4.03 6.75 1.67 3.71 3.02 6.86 3 7-0.02 0.14-0.48 0.25-1.03 0.25-0.55 0-2.35-1.35-4-3-2.33-2.33-3-3.89-3-7 0-2.2 0.45-4 1-4zm41.97 0.04c0.84 0.01 2.48 0.58 3.63 1.25 1.16 0.66 3.63 2.49 5.5 4.06 2.87 2.4 3.21 3.1 2.18 4.5-0.67 0.91-2.02 3.17-3 5.03-0.98 1.87-2.12 3.55-2.53 3.75-0.41 0.21-0.76-0.87-0.77-2.38-0.01-1.51-1.03-4.55-2.28-6.75-1.24-2.2-3.6-4.62-5.23-5.38-2.87-1.34-2.9-1.43-1-2.75 1.09-0.75 2.67-1.35 3.5-1.33zm-15.97 2.96c0.55 0 2.41 1.46 4.13 3.25 1.72 1.79 4.51 5.28 6.2 7.75 1.68 2.47 3.76 5.07 4.62 5.76 0.85 0.69 2.55 1.14 3.78 1 1.23-0.14 2.26-0.04 2.29 0.24 0.04 0.28-0.65 1.17-1.52 2-0.87 0.83-1.56 1.72-1.52 2 0.04 0.28-2.36 4.55-5.34 9.5-2.97 4.95-5.91 9.11-6.52 9.25-0.62 0.14-1.12-0.65-1.12-1.75 0-1.1-0.67-3.35-1.5-5-0.82-1.65-2.85-3.67-4.5-4.5-1.65-0.83-5.25-1.5-8-1.5-2.75 0-6.46-0.6-8.25-1.33-1.79-0.72-4.72-3.09-6.51-5.25-1.79-2.15-3.25-4.93-3.25-6.17 0.01-1.24 0.35-2.26 0.76-2.28 0.41-0.01 1.88 1.13 3.25 2.53 1.38 1.4 3.51 2.54 4.75 2.53 1.52-0.02 2.78-1.08 3.9-3.28 1.56-3.09 1.54-3.45-0.5-7.5-1.28-2.53-1.74-4.45-1.15-4.75 0.55-0.27 2.46 0.99 4.25 2.8 1.79 1.82 4.49 4.97 6 7 1.51 2.04 3.56 3.7 4.55 3.7 0.99 0 2.35-0.56 3.02-1.25 0.67-0.69 1.2-2.38 1.19-3.75-0.01-1.38-0.92-3.85-2.01-5.5-1.09-1.65-1.99-3.56-1.99-4.25-0.01-0.69 0.44-1.25 0.99-1.25zm218.25 14.04c1.61-0.04 1.75 1.59 1.71 41.46l-6.73 5.73c-3.7 3.15-8.98 7.78-11.73 10.28-2.75 2.5-7.02 6.35-9.5 8.56-2.47 2.21-5.06 4-5.75 3.97-0.96-0.03-1.29-5.51-1.61-46.85l8.3-5.84c4.56-3.22 11.73-8.42 15.93-11.56 4.2-3.14 8.42-5.73 9.38-5.75zm-240.54 15.24c2.81 2.32 4.2 2.72 9.54 2.71 3.92 0 7.09 0.56 8.5 1.5 1.24 0.83 2.25 1.85 2.26 2.26 0.01 0.41-2.58 1.08-5.75 1.48-3.33 0.42-7.23 0.3-9.26-0.29-1.92-0.57-4.51-2.13-5.75-3.48-1.24-1.35-2.38-3.46-2.54-4.68-0.29-2.18-0.22-2.16 3 0.5zm0.33 17.22l3.23 3.59c1.78 1.97 5.03 6.14 7.23 9.26 2.73 3.88 3.68 6.03 3 6.77-0.71 0.76-1.97 0.39-4.3-1.27-1.82-1.29-4.36-3.93-5.64-5.85-1.28-1.92-2.6-5.53-2.93-8zm11.21 0.53c0.69 0.01 1.93 0.69 2.75 1.51 0.83 0.82 2.96 1.59 4.75 1.72 1.79 0.13 3.26 0.58 3.25 0.99 0 0.41-0.9 2.55-2 4.75-1.1 2.2-2.34 4.22-2.75 4.48-0.41 0.27-1.51-0.3-2.44-1.25-0.94-0.95-2.41-3.76-3.28-6.23-0.86-2.47-1.56-4.84-1.55-5.25 0.01-0.41 0.58-0.74 1.27-0.72zm-15.5 13.01c0.41 0.02 1.34 0.81 2.06 1.75 0.71 0.94 2.4 3.96 3.74 6.71 1.34 2.75 2.44 6.01 2.44 7.25 0.01 1.24-0.55 2.26-1.24 2.28-0.69 0.01-2.21-1-3.37-2.25-1.17-1.26-2.64-3.29-3.25-4.53-0.62-1.24-1.13-4.28-1.13-6.75 0-2.47 0.34-4.48 0.75-4.46z"/>
		<path id="Path 12" class="s12" d="m115.34 18.25c-1.16 1.79-3.35 5.5-4.87 8.25-1.51 2.75-3.51 6.13-4.45 7.5-0.94 1.38-3.8 5.99-6.36 10.25-2.56 4.26-4.67 8.09-4.69 8.5-0.01 0.41-0.64 1.42-1.39 2.25-0.76 0.83-2.25 3.08-3.32 5-1.08 1.92-3.48 6.12-5.36 9.31-1.87 3.2-3.85 6.58-4.41 7.5-0.56 0.93-3.01 5.06-5.46 9.19-2.44 4.13-5.36 8.85-6.49 10.5-1.12 1.65-2.6 3.9-3.28 5-0.69 1.1-2.6 4.47-4.26 7.5-1.66 3.03-3.57 6.38-4.26 7.45-0.68 1.07-1.61 2.42-2.07 3-0.45 0.58-1.9 2.85-3.22 5.05-1.33 2.2-3.09 5.46-3.93 7.25-0.84 1.79-2.66 4.94-4.05 7-1.39 2.06-2.52 4.09-2.5 4.5 0.02 0.41 8.24 0.76 18.28 0.77 17.64 0.02 18.4-0.06 22.75-2.49 2.47-1.38 5.17-2.77 6-3.09 0.82-0.32 7.35-3.46 14.5-6.97 7.15-3.51 17.9-8.77 23.89-11.68 5.98-2.91 11.04-5.63 11.25-6.04 0.2-0.41 1.15-0.73 2.11-0.72 0.96 0.02 3.07-0.99 4.67-2.25 1.61-1.25 3.98-3.86 5.28-5.78 1.29-1.92 3.58-5.13 5.07-7.12 1.5-1.99 6.41-8.29 10.91-14 4.5-5.71 9.5-11.96 11.11-13.88 1.61-1.92 3.44-4.51 4.07-5.75 0.63-1.24 0.8-2.24 0.39-2.22-0.41 0.02-3.22 1.3-6.25 2.84-3.03 1.55-10.68 5.32-17 8.39-6.32 3.07-20.72 10.1-32 15.63-11.28 5.54-20.84 10.07-21.25 10.09-0.41 0.01-0.19-1.12 0.5-2.51 0.69-1.39 1.59-2.51 2-2.5 0.41 0.02 0.74-0.31 0.72-0.72-0.02-0.41 2.45-4.8 5.48-9.75 3.04-4.95 5.98-10.01 6.53-11.25 0.56-1.24 1.69-2.92 2.52-3.75 0.82-0.83 1.52-2.06 1.54-2.75 0.02-0.69 1.03-2.5 2.25-4.02l2.21-2.76c2.95 8.93 4.49 13.56 5.33 16.03 0.84 2.47 1.67 4.61 1.85 4.75 0.17 0.14 2.46-0.81 5.07-2.11 2.61-1.29 7.9-3.84 11.75-5.65 3.85-1.81 8.8-4.19 11-5.29 2.2-1.11 4.11-2.17 4.25-2.36 0.14-0.19-0.49-2.7-1.41-5.59-0.91-2.89-2.48-7.61-3.5-10.5-1.01-2.89-1.83-6.04-1.82-7 0.01-0.96-1.31-6.03-2.93-11.25-1.62-5.23-3.2-10.74-3.52-12.25l-0.57-2.75h-36.54zm83.91-1.33c-0.32 0.23-0.51 7.09-0.42 15.25 0.13 11.32 0.46 14.75 1.42 14.48 0.69-0.2 3.05-1.55 5.25-3.02 2.2-1.46 7.37-5.15 11.5-8.19 4.12-3.04 10.1-7.2 13.27-9.24 5.02-3.21 5.74-4.07 5.5-6.5l-0.27-2.81c-27.64-0.3-35.93-0.2-36.25 0.03zm165.75 17.08c0 9.35 0.22 17 0.5 17 0.27 0 3.54-2.28 7.25-5.07 3.71-2.8 7.54-5.72 8.5-6.5 0.96-0.79 2.09-1.45 2.5-1.47 0.41-0.02 2.21-1.37 4-3 1.79-1.63 3.92-2.96 4.75-2.96 0.82 0 1.49-0.34 1.49-0.75-0.01-0.41 1.34-1.54 3-2.5 2.71-1.58 3.01-2.24 3.01-6.75v-5h-35zm46.24 46.15l0.26 63.15 31 0.2 1-82c8.52 8.55 18.31 18.56 27.25 27.77 8.94 9.2 16.47 16.73 16.75 16.73 0.27 0 0.51-9.56 0.53-21.25l0.03-21.25c-9.73-10.17-18.19-19.16-25.06-26.54-6.88-7.39-13.96-14.9-15.75-16.69l-3.25-3.27h-33.02zm123.73-59.4c-1.78 2.06-8.91 9.6-15.85 16.76-6.94 7.15-15.97 16.51-20.07 20.81l-7.45 7.8c0.31 32.46 0.74 42.07 1.15 42.3 0.41 0.24 2.78-1.68 5.25-4.25 2.48-2.57 10.13-10.73 17-18.14 6.88-7.4 15.32-16.4 18.77-20l6.28-6.53 0.45 83.93 30 0.07c1.05-6.98 1.38-34.43 1.41-65.5 0.04-31.08-0.15-57.51-0.42-58.75-0.48-2.22-0.69-2.25-16.89-2.25h-16.4zm-305.75 12c-2.86 2.06-6.55 4.65-8.2 5.75-1.64 1.1-6.48 4.45-10.75 7.44-4.28 3-8.55 6.15-9.5 7-1.6 1.44-1.72 4.94-1.5 45.95l0.23 44.39c25.57-0.2 33.79-0.26 34.75-0.27 1.65-0.01 1.75-3.4 1.75-57.01 0-31.35-0.36-57-0.79-57-0.44 0-3.13 1.69-5.99 3.75zm166.03 1.18c-2.34 1.69-4.48 3.07-4.75 3.07-0.28 0-3.54 2.27-7.25 5.04-3.71 2.77-7.54 5.69-8.5 6.5-0.96 0.8-2.09 1.47-2.5 1.49-0.41 0.01-2.21 1.36-4 3l-3.25 2.97v87.5l34.5-0.24c0.41-43.99 0.41-69.28 0.26-84.58l-0.26-27.83zm-225.75 53.3c-1.65 1.93-4.13 4.99-5.5 6.8-1.38 1.82-4.1 5.14-6.06 7.39-1.95 2.25-5.69 7.01-8.3 10.59-3.04 4.15-4.5 7.04-4.06 8 0.38 0.82 1.7 5.1 2.95 9.5 1.24 4.4 2.76 9.46 3.37 11.25l1.1 3.25c27.64 0 35.95-0.34 36.29-0.75 0.35-0.42-0.25-2.89-1.33-5.5-1.08-2.62-1.96-5.65-1.96-6.75 0-1.1-1.42-6.84-3.15-12.75-1.73-5.92-4.76-16.1-6.75-22.64l-3.6-11.89z"/>
	</g>
</svg>