<svg version="1.2" xmlns="http://www.w3.org/2000/svg" viewBox="0 0 573 161" width="573" height="161">
	<title>aijim-black</title>
	<style>
		.s0 { opacity: .13;fill: #000000 } 
		.s1 { opacity: .14;fill: #ffffff } 
		.s2 { opacity: .15;fill: #ff0000 } 
		.s3 { opacity: .31;fill: #000000 } 
		.s4 { opacity: .32;fill: #ff0000 } 
		.s5 { opacity: .55;fill: #ff0000 } 
		.s6 { opacity: .77;fill: #000000 } 
		.s7 { opacity: .8;fill: #ff0000 } 
		.s8 { opacity: 1;fill: #ff0000 } 
		.s9 { opacity: 1;fill: #000000 } 
	</style>
	<g id="Background">
		<path id="Path 0" class="s0" d="m180.39 39.5c0.01 7.7 0.16 10.63 0.35 6.5 0.19-4.13 0.19-10.42 0-14-0.19-3.58-0.35-0.2-0.35 7.5zm0.07 68.5c0 24.48 0.13 34.6 0.29 22.5 0.16-12.1 0.16-32.13 0-44.5-0.16-12.38-0.29-2.48-0.29 22zm288.96-14c0 11.28 0.15 15.78 0.33 10 0.17-5.78 0.17-15 0-20.5-0.18-5.5-0.33-0.78-0.33 10.5z"/>
		<path id="Path 1" class="s1" d="m243.4 42c0 8.53 0.16 11.9 0.34 7.5 0.19-4.4 0.19-11.38 0-15.5-0.18-4.13-0.34-0.53-0.34 8z"/>
		<path id="Path 2" class="s2" d="m269.5 25.75c11.55 0.16 30.23 0.16 41.5 0 11.27-0.16 1.82-0.29-21-0.29-22.82 0-32.05 0.13-20.5 0.29zm-21 31.97c1.65 0.22 4.8 0.22 7 0.01 2.2-0.22 0.85-0.4-3-0.4-3.85-0.01-5.65 0.17-4 0.39z"/>
		<path id="Path 3" class="s3" d="m216.47 95.5c0 30.8 0.12 43.63 0.28 28.5 0.15-15.13 0.15-40.32 0-56-0.16-15.68-0.28-3.3-0.28 27.5zm206.99 15c0 22.55 0.13 32 0.29 21 0.16-11 0.16-29.45 0-41-0.16-11.55-0.29-2.55-0.29 20zm-401.46 41.75c0 0.41 8.21 0.66 18.25 0.56 10.04-0.11 15.55-0.33 12.25-0.49-3.3-0.17-11.51-0.42-18.25-0.56-6.74-0.14-12.25 0.08-12.25 0.49zm121 0.49c4.68 0.19 12.78 0.19 18 0.01 5.22-0.19 1.4-0.34-8.5-0.34-9.9 0-14.18 0.15-9.5 0.33z"/>
		<path id="Path 4" class="s4" d="m267 57.74c4.68 0.19 12.77 0.19 18 0.01 5.23-0.19 1.4-0.34-8.5-0.34-9.9 0-14.18 0.15-9.5 0.33z"/>
		<path id="Path 5" class="s5" d="m331.46 72c0 25.58 0.13 35.93 0.29 23 0.16-12.93 0.16-33.85 0-46.5-0.16-12.65-0.29-2.08-0.29 23.5zm-68.7 18.25c0.14 7.84 0.39 17.63 0.55 21.75 0.16 4.13 0.38-2.29 0.49-14.25 0.11-11.96-0.14-21.75-0.55-21.75-0.41 0-0.63 6.41-0.49 14.25zm-234.76 6.47c1.93 0.22 4.63 0.22 6-0.01 1.38-0.22-0.2-0.41-3.5-0.4-3.3 0.01-4.42 0.19-2.5 0.41z"/>
		<path id="Path 6" class="s6" d="m114.5 24.74c3.85 0.19 9.7 0.19 13 0 3.3-0.2 0.15-0.35-7-0.35-7.15 0-9.85 0.16-6 0.35z"/>
		<path id="Path 7" class="s7" d="m45 52.72c1.38 0.23 3.85 0.23 5.5 0 1.65-0.23 0.52-0.42-2.5-0.42-3.02 0-4.38 0.19-3 0.42z"/>
		<path id="Path 8" fill-rule="evenodd" class="s8" d="m74.59 14.98c1.05 0.81 3.15 2.5 4.66 3.75 1.51 1.25 2.19 2.27 1.5 2.28-0.69 0-2.26-0.67-3.5-1.5-1.24-0.83-2.77-2.52-3.41-3.76-1.1-2.12-1.05-2.16 0.75-0.77zm22.66 1.05c2.06-0.02 4.42 0.65 5.25 1.47 0.82 0.82 1.6 2.15 1.71 2.95 0.12 0.8 0.91 1.91 1.75 2.47 1.16 0.77 0.44 1.03-2.96 1.05-4.41 0.03-4.58 0.15-8.25 6.03-2.06 3.3-3.75 6.23-3.75 6.5 0 0.27-0.9 1.85-4 6.5l-3-4.5c-2.22-3.33-4.05-4.82-7.02-5.75-2.22-0.69-4.02-1.48-4.02-1.75 0-0.27 0.55-1.06 1.22-1.75 0.67-0.69 2.59-1.26 4.27-1.27 1.68-0.02 4.74 0.66 6.8 1.5 2.06 0.83 4.2 1.52 4.75 1.52 0.55 0 1.9-0.9 3-2 1.1-1.1 2-2.9 2-4 0-1.1-1.13-3.13-2.5-4.5-2.3-2.3-2.36-2.58-0.75-3.47 0.96-0.53 3.44-0.98 5.5-1zm233.75 9.97l0.01 92.5-5.59 5c-3.08 2.75-6.57 5.93-7.76 7.07-1.19 1.14-7.22 6.42-24.66 21.43l-58.5-0.5 3.01-3c1.66-1.65 5.71-5.36 9-8.24 3.3-2.88 9.36-8.39 20.99-19.22l13 0.01 15.5-13.05v-51h-52l-0.17-14.83c-0.09-8.16 0.21-15.14 0.67-15.5 0.46-0.37 20.11-0.67 86.5-0.67zm-268.75 18.7c1.24 0.38 4.28 0.6 6.75 0.47 2.47-0.12 5.29 0.02 6.25 0.31 0.96 0.28 2.65 2.1 3.75 4.02 1.92 3.37 1.93 3.61 0.25 6.49-0.96 1.65-2.09 3-2.5 3-0.41 0.01-0.75-0.33-0.75-0.74 0.01-0.41-1.12-1.99-2.5-3.5-1.37-1.51-3.51-2.73-4.75-2.72-1.24 0.02-3.38-0.8-4.75-1.84-1.38-1.03-2.84-2.84-3.25-4.03-0.66-1.9-0.48-2.07 1.5-1.46zm-5.25 7.91c1.92 0.21 4.28 1.17 5.22 2.13 1.65 1.68 1.36 1.75-6 1.56-4.24-0.1-8.81-0.78-10.14-1.5-2.34-1.25-2.24-1.32 2.5-1.94 2.7-0.35 6.5-0.46 8.42-0.25zm-39.06 10.39c0.41 1.37 1.73 4.41 2.91 6.75 1.18 2.34 1.7 4.25 1.15 4.25-0.55 0-1.92-1.24-3.03-2.75-1.33-1.79-2-4.14-1.92-6.75 0.1-3.44 0.23-3.65 0.89-1.5zm42.4-1.19c1.19 0.3 4.3 2.27 6.91 4.37 2.61 2.1 4.3 4.04 3.75 4.32-0.55 0.28-2.6 3.31-4.55 6.75-1.96 3.44-4.55 7.86-5.75 9.83-1.21 1.97-4.22 7.06-11.2 19.06l-1.24-4.82c-0.78-3.08-2.23-5.62-4-7.03-2-1.61-4.14-2.23-7.76-2.26-2.75-0.02-6.57-0.47-8.5-1-1.93-0.53-5.13-2.67-7.12-4.75-2-2.08-3.94-5.13-5.03-9.78l3.33 3.23c1.82 1.78 4.11 3.25 5.07 3.25 0.96 0.01 2.65-0.88 3.75-1.98 1.16-1.16 2.01-3.37 2.03-5.25 0.02-1.79-0.88-4.49-2-6-1.63-2.21-1.73-2.75-0.53-2.75 0.83 0 2.74 1.54 4.25 3.42 1.51 1.88 3.54 4.58 4.5 6 0.96 1.42 2.85 3.14 4.2 3.83 2.03 1.04 2.72 0.99 4.04-0.25 0.9-0.84 1.58-3.04 1.55-5-0.03-1.92-0.95-4.96-2.04-6.75-1.1-1.79-1.55-3.25-1-3.25 0.55 0 1.67 0.22 2.5 0.5 0.83 0.28 1.49 1.06 1.47 1.75-0.02 0.69 0.92 2.15 2.08 3.25 1.17 1.1 3.1 3.74 4.29 5.86 1.19 2.12 3.29 4.44 4.66 5.16 1.64 0.86 3.1 0.99 4.25 0.39q1.74-0.92 1.75-4.41c0-1.92-0.9-5.3-2-7.5-1.38-2.75-3.01-4.35-8.5-6.27l2.34-1.23c1.28-0.68 3.31-0.99 4.5-0.69zm202.41 15.27c0.14-0.04 0.24 9.48 0.19 42.42l-5.72 4.88c-3.15 2.68-8.79 7.63-12.54 11-3.74 3.37-8.69 7.79-11 9.83-2.3 2.04-4.52 3.51-4.93 3.25-0.41-0.25-0.75-10.81-0.75-23.46 0-20.86 0.17-23.16 1.81-24.75 0.99-0.96 6.67-5.13 12.63-9.25 5.95-4.13 12.23-8.67 13.94-10.1 1.72-1.43 3.8-2.86 4.62-3.17 0.82-0.32 1.61-0.61 1.75-0.65zm-242.05 16.82c2.93 2.76 3.96 3.1 9.3 3.1 3.3 0 7.13 0.45 8.5 1 1.38 0.55 2.5 1.34 2.5 1.75 0 0.41-3.86 0.75-17.15 0.75l-3.43-3.75c-1.88-2.06-3.33-4.25-3.22-4.85 0.11-0.61 1.69 0.29 3.5 2zm2.4 19.6c1.35 1.65 3.8 4.74 5.43 6.88 1.63 2.13 3.76 4.94 4.72 6.25 0.96 1.3 1.53 3.05 1.25 3.87-0.37 1.1-1.93 0.09-5.82-3.75-3.91-3.86-5.53-6.31-6.11-9.25-0.43-2.2-1.04-4.68-1.36-5.5-0.31-0.83 0.54-0.15 1.89 1.5zm8.63-3l2.39 2.38c1.85 1.84 3.2 2.29 9.73 1.62l-2.67 5c-1.48 2.75-3.13 4.91-3.68 4.81-0.55-0.1-1.77-1.68-2.72-3.5-0.95-1.82-2.02-4.89-2.38-6.81zm-15.92 12l2.7 4c1.49 2.2 3.55 5.91 4.59 8.25 1.04 2.34 1.89 4.93 1.89 5.75 0 0.82-0.22 1.5-0.5 1.5-0.27 0-1.4-0.45-2.5-1-1.1-0.55-2.62-2.24-3.37-3.75-0.76-1.51-1.7-5.45-2.09-8.75z"/>
		<path id="Path 9" class="s9" d="m94.58 30.12c-1.97 3.23-3.59 6.22-3.61 6.63-0.01 0.41-1.09 2.1-2.39 3.75-1.3 1.65-2.66 4.12-3.01 5.5-0.35 1.37-1.96 4.08-3.59 6-1.62 1.92-3.5 4.85-4.16 6.5-0.67 1.65-3.53 6.6-6.37 11-2.84 4.4-5.92 9.35-6.84 11-0.91 1.65-2.51 4.35-3.54 6-1.03 1.65-4.83 8.17-8.43 14.5-3.6 6.33-7.19 12.17-7.97 13-0.78 0.83-2.79 4.2-4.47 7.5-1.68 3.3-3.78 6.68-4.67 7.5-0.89 0.82-1.6 2.06-1.57 2.75 0.02 0.69-1.08 3.05-2.46 5.25-1.37 2.2-2.51 4.34-2.53 4.75-0.01 0.41-1.37 2.55-3.02 4.75-1.65 2.2-2.98 4.34-2.97 4.75 0.01 0.41 8.01 0.76 17.77 0.76l17.75 0.02c28.67-14.1 43.93-21.64 52.4-25.86 11.1-5.53 15.97-8.51 17.44-10.67 1.12-1.65 3.19-4.38 4.6-6.08 1.41-1.69 3.78-4.61 5.28-6.5 1.5-1.88 5.54-7.02 8.99-11.42 3.45-4.4 7.97-10.25 10.04-13 2.07-2.75 3.76-5.34 3.76-5.75-0.01-0.41-5.3 1.92-11.76 5.17-6.46 3.26-20.75 10.27-31.75 15.56-11 5.3-23.04 11.19-26.75 13.08-6.47 3.3-6.72 3.35-6.12 1.19 0.35-1.24 1.41-3.38 2.36-4.75 0.96-1.38 3.6-5.54 5.87-9.25 2.28-3.71 4.16-7.09 4.17-7.5 0.02-0.41 1.6-2.89 3.5-5.5 1.91-2.61 3.47-5.2 3.47-5.75 0-0.55 1.24-2.78 2.75-4.96 1.51-2.18 2.97-3.98 3.25-4 0.28-0.02 0.55 0.52 0.61 1.21 0.05 0.69 1.37 5.53 2.92 10.75 1.56 5.22 2.97 9.61 3.15 9.75 0.18 0.14 2.01-0.57 4.07-1.58 2.06-1.01 6.68-3.24 10.25-4.95 3.57-1.71 8.88-4.15 11.79-5.42 2.91-1.26 5.26-2.75 5.23-3.3-0.03-0.55-1.34-5.05-2.91-10-1.56-4.95-3.87-12.6-5.13-17-1.26-4.4-3.01-10.79-3.89-14.2l-1.59-6.2-36.33-0.86zm86.41 10.38v14.5c4.65-2.33 7.47-4.24 9.26-5.75 1.79-1.51 3.97-3.2 4.85-3.75 0.88-0.55 3.35-2.21 5.49-3.68 2.15-1.47 6.38-4.42 9.4-6.56 4.07-2.87 5.57-4.58 5.75-6.57l0.25-2.69h-35zm165 2c0 9.07 0.23 16.5 0.5 16.5 0.28 0 2.19-1.27 4.25-2.83 2.07-1.55 5.5-4.14 7.62-5.75 2.13-1.61 4.88-3.6 6.1-4.42 1.23-0.83 3.54-2.38 5.14-3.45 1.59-1.08 4.58-3.21 6.64-4.75 3.37-2.51 3.75-3.27 3.75-7.3v-4.5h-34zm47 46.5v63h30c0-65.1 0.23-84 0.5-84 0.28 0 3.32 3.02 6.75 6.72 3.44 3.7 11 11.68 16.8 17.75 5.81 6.06 13.11 13.73 16.23 17.03l5.68 6 0.03-42c-9.68-10.15-19.8-20.83-28.74-30.3l-16.25-17.2h-31zm122.46-57.78c-2.7 2.9-11.45 12.23-19.43 20.72-7.99 8.49-16.21 17.15-18.28 19.25l-3.75 3.81v41c3.49-2.64 9.68-8.94 16-15.7 6.33-6.76 15.89-16.91 21.25-22.55l9.75-10.25v84.5h31l-0.5-125.5-31.13-0.55zm-302.59 9.53c-1.45 0.96-5.45 3.77-8.88 6.24-3.44 2.48-7.27 5.18-8.51 6-1.23 0.83-5.08 3.48-8.55 5.9l-6.3 4.39 0.38 88.71h35c0-87.57-0.11-112.99-0.25-112.99-0.14 0-1.44 0.79-2.89 1.75zm160.64 4.76c-3.3 2.43-7.8 5.71-10 7.28-2.2 1.57-5.58 3.96-7.5 5.29-1.93 1.34-4.96 3.53-6.74 4.86l-3.24 2.43-0.02 86.62h35c0-86.02-0.34-110.97-0.75-110.95-0.41 0.03-3.45 2.04-6.75 4.47zm-225.5 54.68c-3.03 3.65-6.7 8.14-8.15 9.97-1.46 1.83-4.95 6.37-7.75 10.08l-5.1 6.75c3.88 13.57 5.57 19.19 6.26 21.25l1.24 3.76 35.5-0.01c-2.1-5.81-3.03-9.3-3.41-11.5-0.39-2.2-1.57-6.47-2.62-9.5-1.05-3.02-2.58-8.42-3.4-12-0.82-3.57-2.6-9.87-3.95-14-1.36-4.12-2.62-8.38-2.8-9.46-0.25-1.57-1.45-0.61-5.82 4.66z"/>
	</g>
</svg>