<svg version="1.2" xmlns="http://www.w3.org/2000/svg" viewBox="0 0 573 161" width="573" height="161">
	<style>
		.s0 { fill: #ffffff } 
		.s1 { fill: #ff0000 } 
	</style>
	<g id="Background">
		<path id="Path 0" class="s0" d="m101 25c0 0.55-0.53 1-1.17 1-0.65 0-2.24 1.24-3.53 2.75-1.29 1.51-3.29 4.55-4.44 6.75-1.15 2.2-2.91 4.9-3.91 6-1.01 1.1-3.15 4.48-4.76 7.5-1.61 3.02-4.94 8.65-7.4 12.5-2.45 3.85-4.8 7.9-5.21 9-0.41 1.1-2.21 4.25-4 7-1.79 2.75-5.92 9.72-9.17 15.48-3.25 5.77-6.86 11.62-8.02 13-1.16 1.39-3.8 5.67-5.88 9.52-2.07 3.85-4.82 8.35-6.11 10-1.29 1.65-2.36 3.56-2.37 4.25-0.02 0.69-0.37 1.36-0.78 1.5-0.41 0.14-2.28 3.18-4.15 6.75-1.87 3.57-3.97 7.18-4.68 8-0.7 0.82-1.76 2.74-2.35 4.25l-1.07 2.75 37.5-0.72c45.72-22.78 61.02-30.61 63.48-32.09 3.04-1.82 8.05-7.2 15.57-16.69 6.1-7.7 13.65-17.37 16.77-21.5 3.13-4.12 5.68-8.06 5.68-8.75 0-0.69-0.22-1.25-0.5-1.25-0.28 0-17.15 8.1-37.5 18-20.35 9.9-37.21 17.89-37.48 17.75-0.26-0.14 2.15-4.53 5.35-9.75 3.2-5.22 8.7-14.36 12.23-20.3 4.88-8.23 6.56-10.38 7.07-9 0.36 0.99 1.83 5.74 3.25 10.55 2.36 8 2.77 8.71 4.83 8.3 1.24-0.25 8.44-3.4 16-7 10.9-5.19 13.75-6.96 13.75-8.55 0-1.1-2.23-9.54-4.96-18.75-2.73-9.21-5.6-19-6.37-21.75-1.21-4.27-1.91-5.17-4.79-6.17-1.9-0.66-9.4-1.21-17.13-1.25-8.55-0.05-13.75 0.3-13.75 0.92zm417.07 2.86c-1.89 1.02-4.54 3.38-5.89 5.25-1.35 1.86-10.72 12.05-20.82 22.64l-18.36 19.25c0 39.25 0.15 40.98 1.71 40.75 0.93-0.14 11.4-10.5 23.25-23.03l21.54-22.78 0.5 82.06h32c0-117.17-0.19-125.06-1.5-125.5-0.83-0.27-7.69-0.5-15.25-0.5-11.49 0.01-14.31 0.31-17.18 1.86zm-373.77 75.89c-4.35 5.36-10.02 12.56-12.6 16-2.59 3.44-4.69 7.04-4.69 8 0.01 0.96 1.48 6.7 3.28 12.75l3.25 11c8.49 1.28 16.43 1.51 23.12 1.33 6.69-0.18 12.43-0.55 12.76-0.83 0.33-0.28-1.02-6.57-3-14-1.98-7.43-4-13.95-4.49-14.5-0.48-0.55-1.3-3.47-1.8-6.5-0.51-3.03-2.1-9.44-3.53-14.25-1.43-4.81-3-8.75-3.5-8.75-0.49 0-4.45 4.39-8.8 9.75z"/>
		<path id="Path 1" class="s1" d="m91 16.91c-1.28 0.76-1.17 1.3 0.78 3.74 1.26 1.57 2.29 3.75 2.3 4.85 0 1.1-0.73 2.68-1.63 3.5-1.41 1.3-2.32 1.32-6.79 0.16-2.84-0.74-6.73-1.19-8.65-1-2.4 0.23-3.57 0.89-3.75 2.09-0.18 1.24 0.76 2.04 3.24 2.75 2.37 0.68 4.55 2.45 6.75 5.47 2.65 3.65 3.5 4.25 4.62 3.25 0.76-0.67 2.44-3.24 3.73-5.72 1.29-2.48 3.48-5.74 4.87-7.25 1.39-1.51 2.98-2.75 3.53-2.75 0.55 0 1-0.45 1-1 0-0.55 1.29-1.11 2.87-1.25l2.87-0.25c-4.57-7.23-5.08-7.5-9.49-7.48-2.61 0-5.42 0.41-6.25 0.89zm-31.12 28.42c0.02 0.64 1.3 2.42 2.83 3.96 1.54 1.53 3.58 2.77 4.54 2.75 0.96-0.02 3.59 1.65 5.83 3.71 3.4 3.12 4.24 3.5 5.03 2.25 0.53-0.83 1.39-2.29 1.92-3.25 0.54-0.96 0.76-2.54 0.51-3.5-0.26-0.96-1.5-2.71-2.75-3.87-1.78-1.65-4.03-2.25-10.12-2.68-5.65-0.39-7.82-0.22-7.79 0.63zm-3.83 16.33c-0.8 0.28-1.37 1.03-1.28 1.67 0.1 0.65 1.33 1.84 2.74 2.67 1.41 0.83 3.27 3.08 4.14 5 0.87 1.92 1.64 4.72 1.72 6.21 0.07 1.48-0.43 3.28-1.11 4-0.94 0.98-1.77 1.03-3.5 0.18-1.24-0.61-4.51-4.52-7.26-8.7-3-4.56-5.7-7.62-6.75-7.65-0.96-0.02-1.74 0.3-1.74 0.71 0.01 0.41 0.69 2.66 1.5 5 1.09 3.09 1.22 4.93 0.49 6.75-0.6 1.5-1.8 2.5-3 2.5-1.15 0-3.47-1.81-5.44-4.25-1.9-2.34-4.34-5.37-5.43-6.75-1.36-1.71-2.33-2.18-3.07-1.5-0.78 0.72-0.69 1.99 0.34 4.5 1.23 3.02 1.23 3.95 0.01 6.75-0.98 2.25-2.1 3.26-3.66 3.29-1.24 0.03-2.93-0.67-3.75-1.54-0.82-0.87-2.06-1.57-2.75-1.54-0.69 0.02-1.42-0.75-1.63-1.71-0.32-1.42-0.4-1.37-0.47 0.25-0.05 1.1 0.91 3.74 2.13 5.86 1.22 2.12 4.02 4.88 6.22 6.13 2.4 1.36 6.6 2.53 10.5 2.92 3.58 0.35 7.51 1.31 8.75 2.12 1.31 0.86 2.92 3.65 3.87 6.72l1.62 5.25c2.88-3.87 3.73-5.34 3.74-5.75 0.01-0.41 2.04-4.12 4.52-8.25 2.48-4.12 6.53-10.88 9-15 2.47-4.12 4.52-7.84 4.55-8.25 0.02-0.41-2.34-2.44-5.25-4.5-2.92-2.06-5.97-3.71-6.8-3.67-0.83 0.04-2.15 0.3-2.95 0.58zm-23.58 51.57c-0.39 0.7-0.01 3.07 0.85 5.27 0.86 2.2 2.27 4.56 3.12 5.25 1.33 1.07 1.99 0.49 4.55-4l2.98-5.25c-6.56-0.82-8.99-1.39-9.63-1.79-0.65-0.41-1.49-0.17-1.87 0.52zm-10.17 0.56c-0.8 0.51-0.73 1.82 0.28 4.71 0.76 2.2 3.31 5.97 5.65 8.37 2.44 2.5 4.81 4.11 5.52 3.75 0.69-0.34 1.25-1.07 1.25-1.62 0-0.55-2.31-4.04-5.14-7.75-2.83-3.71-5.44-7.07-5.8-7.46-0.35-0.39-1.15-0.39-1.76 0zm-6.97 9.71c0.28 1.1 0.81 4.25 1.18 7 0.38 2.75 1.03 5.68 1.46 6.5 0.42 0.82 1.5 2.29 2.4 3.25 0.9 0.96 2.31 1.75 3.13 1.75 0.89 0 1.5-0.92 1.5-2.25 0-1.24-1.16-4.5-2.57-7.25-1.4-2.75-3.69-6.35-5.07-8-1.93-2.3-2.41-2.53-2.03-1z"/>
		<path id="Path 2" class="s0" d="m180 40.5c0 10.93 0.31 14.5 1.25 14.51 0.69 0.01 3.13-1.23 5.44-2.75 2.3-1.52 8.6-5.85 14-9.63 5.39-3.78 11.06-8.05 12.58-9.5 1.53-1.45 2.76-3.64 2.75-4.88-0.02-2.25-0.03-2.25-18.02-2.25h-18zm165.47 1.75c0.4 8.94 0.93 16.48 1.18 16.75 0.25 0.27 1.08 0.05 1.85-0.5 0.76-0.55 8.16-5.84 16.44-11.75l15.06-10.75v-10h-35.27zm46.54 46.75v63l30.5 0.03c1.14-8.16 1.49-26.73 1.5-46.53l0.02-36c12.82 13.17 22.49 23.3 29.75 31 9.03 9.57 13.54 13.68 14.26 13 0.58-0.55 1.32-5.72 1.65-11.5 0.32-5.78 0.27-14.78-0.12-20l-0.7-9.5c-24.91-26.35-32.75-34.11-33.5-34.25-0.75-0.14-1.36-0.7-1.36-1.25 0-0.55-2.03-3.25-4.5-6l-4.5-5h-33zm-194.54-38.21l-16.96 11.79-0.5 89.42 35.5 0.01c1.15-24.42 1.49-42.31 1.49-55.51 0.01-13.2-0.27-31.54-0.61-40.75-0.35-9.21-0.93-16.75-1.29-16.75-0.37 0-8.3 5.3-17.63 11.79zm164.55 1.99l-16.49 11.71 0.48 87.51h35c0-99.25-0.27-110.99-1.25-110.96-0.69 0.02-8.67 5.3-17.74 11.74z"/>
		<path id="Path 3" class="s1" d="m74.53 16.02c-0.29 0.54 0.03 1.68 0.72 2.52 0.69 0.85 1.81 1.53 2.5 1.5 0.69-0.02 1.26-0.61 1.26-1.3 0.01-0.69-0.88-1.81-1.97-2.48-1.24-0.76-2.19-0.85-2.51-0.24zm184.22 9.63l-14.75 0.35c-0.92 8.14-1.03 14.85-0.84 20.17 0.18 5.32 0.71 10.04 1.17 10.5 0.46 0.46 12.27 0.83 26.25 0.83h25.42l-0.05 50-16.45 13.58-12.5-0.08c-24.8 22.47-31.78 29.45-31.5 30 0.32 0.63 11.17 1 29.5 1h29c20.54-18.04 28.98-25.53 32-28.29l5.5-5.02c0-70.93-0.23-91.76-0.5-92.05-0.27-0.28-13.32-0.7-29-0.93-15.68-0.23-35.14-0.26-43.25-0.06zm-212.59 28.05c0.21 1.08 1.82 2.02 4.34 2.55 2.2 0.46 5.77 0.7 7.92 0.54 2.16-0.16 4.09-0.74 4.28-1.29 0.2-0.55-0.78-1.56-2.17-2.25-1.39-0.69-5.27-1.25-8.62-1.25-5.2 0-6.04 0.25-5.75 1.7zm-29.13 13.55c0.02 1.24 0.7 3.15 1.5 4.25 1 1.36 1.82 1.68 2.55 1 0.76-0.71 0.61-1.95-0.5-4.25-0.87-1.79-2.03-3.25-2.58-3.25-0.55 0-0.99 1.01-0.97 2.25zm234.47 16.46c-4.95 3.66-12.26 9.06-16.23 11.99l-7.24 5.35c-0.02 38.14 0.35 47.14 0.97 47.45 0.55 0.27 8.35-5.91 17.34-13.75l16.33-14.25c1.04-9.3 1.35-18.53 1.35-26.5 0.01-10.38-0.35-14.86-1.25-15.77-0.7-0.69-1.5-1.24-1.77-1.22-0.27 0.03-4.55 3.04-9.5 6.7zm-233.81 9.04c-0.35 0.41 0.7 2.44 2.34 4.5l2.97 3.75c13.44-0.39 17.5-0.95 17.69-1.5 0.2-0.55-1.34-1.56-3.41-2.23-2.08-0.68-5.8-1.23-8.28-1.22-2.98 0.01-5.43-0.67-7.25-2.02-1.51-1.11-2.9-2.03-3.08-2.03-0.19 0-0.63 0.34-0.98 0.75z"/>
	</g>
</svg>